<svg width="303" height="89" viewBox="0 0 303 89" fill="none" xmlns="http://www.w3.org/2000/svg">
<g clip-path="url(#clip0_83_18)">
<path d="M91.4549 55.4395C91.6064 55.3414 91.7578 55.2434 91.9168 55.1455C93.2797 54.2253 94.3856 53.2443 95.2345 52.1947C96.7505 50.3221 97.1018 48.4549 96.281 46.5704C95.8367 45.5562 95.1198 44.7759 94.1225 44.2372C94.0168 44.1765 93.911 44.1309 93.7901 44.0854C92.8833 43.7131 91.8396 43.7868 90.6589 44.2988C89.5388 44.7883 88.7283 45.5279 88.2122 46.5024C87.7113 47.477 87.3917 48.5654 87.2836 49.7676C87.1679 50.9698 87.2261 52.2101 87.4581 53.5037C87.5467 54.0109 87.6435 54.5064 87.7476 54.9901C87.9901 56.1168 89.2553 56.7017 90.263 56.1422C90.5403 55.9882 90.8089 55.8318 91.0688 55.6732C91.1975 55.5978 91.3338 55.5225 91.4549 55.4395ZM38.4149 20.2453C37.0445 20.2427 35.8122 20.79 34.9132 21.6857C33.9374 22.6647 33.3644 24.048 33.466 25.5508C33.6559 28.1736 35.9618 30.1326 38.5913 30.1375L58.4655 30.1745C61.1576 30.1795 63.3448 32.3679 63.3398 35.0669C63.3348 37.766 61.1395 39.9462 58.4474 39.9412L24.1944 39.8776L24.1944 39.8914C21.5925 39.9979 19.5155 42.1297 19.5106 44.7522C19.5057 47.3817 21.5748 49.5211 24.1763 49.6372L24.1762 49.6512L53.2189 49.7051C55.911 49.7101 58.0981 51.8985 58.0931 54.5976C58.0906 55.9471 57.5388 57.1704 56.6537 58.0452C55.7756 58.9271 54.5642 59.4674 53.2147 59.4718L8.25661 59.3883C7.07843 59.3861 5.96248 59.9481 5.28103 60.9092C2.46987 64.8741 5.24075 69.1494 9.01689 69.1565L58.4137 69.2483C61.3006 69.2606 63.6054 71.8039 63.2242 74.7805C62.9066 77.2425 60.6912 79.0192 58.2078 79.0146L36.5784 78.9743C36.3529 78.9739 36.1294 78.9448 35.9066 78.9103C35.6694 78.8736 35.4257 78.854 35.1756 78.8535L24.3724 78.8334C21.6734 78.8284 19.3113 80.904 19.2158 83.6029C19.1202 86.3922 21.335 88.6919 24.1036 88.7249L115.13 88.894C120.05 88.9032 124.046 84.922 124.055 80.0019L124.149 29.3133C124.158 24.3932 120.177 20.3972 115.257 20.3881L38.4149 20.2453ZM115.352 67.2507C115.337 67.3944 115.291 67.5304 115.253 67.6665C114.812 69.1176 114.015 70.4925 112.856 71.7759C111.712 73.0593 110.318 74.2289 108.69 75.2997C108.086 75.6863 107.489 76.0593 106.886 76.4122C106.822 76.4499 106.756 76.4833 106.687 76.513L100.705 79.119C99.4259 79.6686 98.1017 80.0896 96.7325 80.314C96.725 80.3139 96.7174 80.3139 96.7023 80.3215C94.2514 80.7252 91.8468 80.6225 89.496 80.0131C87.1453 79.4114 84.9091 78.2048 82.7875 76.4011C80.6809 74.6049 78.8709 71.9774 77.3573 68.5187C76.8076 67.2472 76.2433 65.6808 75.6645 63.8118C75.1008 61.9504 74.6962 59.9457 74.4582 57.8127C74.2201 55.6797 74.2243 53.4489 74.4555 51.1428C74.6866 48.8367 75.3184 46.5768 76.3511 44.3706C77.3912 42.1643 78.8999 40.0799 80.8849 38.125C82.8773 36.1701 85.5273 34.4735 88.8271 33.0277C91.4685 31.8756 93.8443 31.2069 95.9394 31.0142C98.0344 30.829 99.8642 31.0139 101.436 31.5689C103.016 32.1239 104.353 32.9733 105.454 34.1249C106.564 35.2764 107.461 36.6393 108.147 38.221C109.171 40.5521 109.56 42.7459 109.337 44.7722C109.099 46.8135 108.475 48.7029 107.458 50.4554C106.427 52.2004 105.138 53.7785 103.57 55.1822C102.01 56.5934 100.404 57.8458 98.7763 58.9544C97.1407 60.063 95.5888 60.9752 94.1279 61.706C92.7351 62.3991 91.6377 62.9189 90.843 63.2804L90.7067 63.3406C91.1284 64.3018 91.6788 65.1952 92.373 66.0132C93.0597 66.8312 93.845 67.4755 94.7061 67.9383C95.5825 68.4088 96.5727 68.6678 97.6842 68.7304C98.7958 68.7853 100.021 68.5305 101.338 67.9507L113.41 62.6871C114 62.4311 114.703 62.6895 114.967 63.2798V63.295C115.546 64.6194 115.672 65.9355 115.352 67.2507Z" fill="#6E4B9C"/>
<path d="M26.2351 20.2948H13.4309C11.1956 20.2948 9.38366 22.1068 9.38366 24.342V26.1395C9.38366 28.3747 11.1956 30.1867 13.4309 30.1867H26.2351C28.4703 30.1867 30.2823 28.3747 30.2823 26.1395V24.342C30.2823 22.1068 28.4703 20.2948 26.2351 20.2948Z" fill="#6E4B9C"/>
<path d="M11.1384 78.909H4.04719C1.81199 78.909 0 80.721 0 82.9562V84.7537C0 86.9889 1.81199 88.8009 4.04719 88.8009H11.1384C13.3736 88.8009 15.1855 86.9889 15.1855 84.7537V82.9562C15.1855 80.721 13.3736 78.909 11.1384 78.909Z" fill="#6E4B9C"/>
<path d="M81.3354 27.4903C82.4206 27.4903 83.3002 26.6106 83.3002 25.5255C83.3002 24.4404 82.4206 23.5607 81.3354 23.5607C80.2503 23.5607 79.3706 24.4404 79.3706 25.5255C79.3706 26.6106 80.2503 27.4903 81.3354 27.4903Z" fill="#242424"/>
<path d="M107.266 27.5385C108.351 27.5385 109.231 26.6588 109.231 25.5737C109.231 24.4886 108.351 23.6089 107.266 23.6089C106.181 23.6089 105.301 24.4886 105.301 25.5737C105.301 26.6588 106.181 27.5385 107.266 27.5385Z" fill="#242424"/>
<path d="M93.7918 0.00901719C86.3987 0.274766 80.6455 6.57318 80.6318 13.9711L80.6108 25.2283C80.6101 25.6105 80.9193 25.9208 81.3015 25.9215L81.3088 25.9215C81.691 25.9222 82.0013 25.6131 82.002 25.2309L82.0069 22.5925L82.023 13.9631C82.0358 7.10024 87.6623 1.26612 94.524 1.39341C101.194 1.51713 106.576 6.98741 106.563 13.6834L106.546 22.6381L106.554 22.6381L106.549 25.2765C106.548 25.6587 106.857 25.969 107.24 25.9697C107.622 25.9704 107.932 25.6612 107.933 25.2791L107.954 13.686C107.969 5.97872 101.564 -0.270363 93.7918 0.00901719Z" fill="#7E7F7E"/>
</g>
<path d="M165.913 53.9107C172.106 53.9107 173.406 61.3271 173.406 66.1439C173.406 74.5542 168.895 81.9705 156.508 81.9705H130.207V28.4505H156.508C167.748 28.4505 173.406 35.1787 173.406 42.8244C173.406 47.7942 171.953 53.7578 165.913 53.7578V53.9107ZM148.48 69.508H151.233C155.897 69.508 156.508 68.2082 156.508 63.3149C156.508 57.7336 155.897 57.1219 151.233 57.1219H145.422V66.4497C145.422 68.0553 144.887 69.9667 143.74 71.1136L143.893 71.19C145.04 70.0432 146.875 69.508 148.48 69.508ZM145.422 50.2408H151.233C155.897 50.2408 156.585 49.2468 156.585 45.5769C156.585 41.8305 155.897 40.913 151.233 40.913H148.48C146.875 40.913 145.04 40.3778 143.893 39.231L143.74 39.3074C144.887 40.4543 145.422 42.3657 145.422 43.9713V50.2408ZM177.676 34.4141C177.676 30.5913 181.27 27.533 185.781 27.533C190.292 27.533 193.885 30.5913 193.885 34.4141C193.885 38.237 190.292 41.2953 185.781 41.2953C181.27 41.2953 177.676 38.237 177.676 34.4141ZM178.059 81.7411V43.589H193.35V81.7411H178.059ZM240.254 43.589L229.932 56.7396C228.938 57.9629 227.409 59.0333 225.803 58.8804L225.727 59.0333C227.332 59.1863 228.709 60.4096 229.473 61.8623L240.254 81.7411H224.962L214.182 62.1681V81.7411H198.967V24.4747H214.182V57.0455L224.962 43.589H240.254ZM257.77 51.0818C259.605 46.0356 263.275 42.9009 268.78 42.9009C274.361 42.9009 279.025 46.6473 280.325 50.6995L274.514 61.4035C272.22 58.1159 269.086 55.2869 265.416 55.2869C261.899 55.2869 260.064 56.0515 258.458 56.8161V81.7411H243.243V43.589H258.458V45.8827C258.458 47.4883 258.152 49.5527 257.617 51.0818H257.77ZM282.88 34.4141C282.88 30.5913 286.473 27.533 290.984 27.533C295.495 27.533 299.089 30.5913 299.089 34.4141C299.089 38.237 295.495 41.2953 290.984 41.2953C286.473 41.2953 282.88 38.237 282.88 34.4141ZM283.262 81.7411V43.589H298.553V81.7411H283.262Z" fill="white"/>
<defs>
<clipPath id="clip0_83_18">
<rect width="124.149" height="88.894" fill="white"/>
</clipPath>
</defs>
</svg>
